# xmcd
#
# Track frame offsets:
#	150
#	22126
#	36465
#	55803
#	75873
#	92802
#	106302
#	123862
#	140776
#	161003
#	180197
#
# Disc length: 2739 seconds
#
# Revision: 1
# Processed by: cddbd v1.5.2PL0 Copyright (c) Steve Scherf et al.
# Submitted via: audiograbber 1.83.01
#
DISCID=890ab10b
DTITLE=Bob Kemmis - Arena Ready
DYEAR=2004
DGENRE=Country
TTITLE0=Late Night Advice
TTITLE1=Let Down
TTITLE2=Freak Luck
TTITLE3=Letter to Gotham
TTITLE4=Figured Out
TTITLE5=Tell Me It's Not True
TTITLE6=The End of This Song
TTITLE7=My Green Shirt
TTITLE8=Inferior
TTITLE9=Harder Then You Know
TTITLE10=Amy Elyse
EXTD=
EXTT0=
EXTT1=
EXTT2=
EXTT3=
EXTT4=
EXTT5=
EXTT6=
EXTT7=
EXTT8=
EXTT9=
EXTT10=
PLAYORDER=
